<svg width="481" height="55" viewBox="0 0 481 55" fill="none" xmlns="http://www.w3.org/2000/svg">
<path d="M26.0625 4.15625C30.2917 4.15625 34.1667 4.6875 37.6875 5.75C39.2292 6.22917 40.5208 6.76042 41.5625 7.34375L40.8438 15.6875H38.7812C38.7812 13.375 37.6458 11.5208 35.375 10.125C32.9583 8.64583 29.6354 7.90625 25.4062 7.90625C19.9271 7.90625 15.3958 9.75 11.8125 13.4375C8.25 17.1458 6.46875 21.7812 6.46875 27.3438C6.46875 33.2396 8.11458 38.2396 11.4062 42.3438C13.6354 45.1146 16.4583 47.0417 19.875 48.125C21.625 48.6875 23.6146 48.9688 25.8438 48.9688C28.0729 48.9688 30.0521 48.8438 31.7812 48.5938C33.5104 48.3229 34.9271 47.8958 36.0312 47.3125C38.1979 46.1667 39.2812 44.2292 39.2812 41.5H41.3438L41.7812 49.5625C38.1562 51.6667 32.8125 52.7188 25.75 52.7188C17.9583 52.7188 11.7396 50.4583 7.09375 45.9375C2.65625 41.625 0.4375 36.0625 0.4375 29.25C0.4375 21.7083 3.0625 15.5625 8.3125 10.8125C13.1667 6.375 19.0833 4.15625 26.0625 4.15625ZM49.2188 36.8125C49.2188 34.4167 49.625 32.1875 50.4375 30.125C51.2708 28.0625 52.3958 26.3125 53.8125 24.875C56.7292 21.8542 60.3229 20.3438 64.5938 20.3438C69.5521 20.3438 73.4271 21.8125 76.2188 24.75C78.8646 27.5625 80.1875 31.2396 80.1875 35.7812C80.1875 40.8438 78.6875 44.9583 75.6875 48.125C72.7708 51.1875 69.1667 52.7188 64.875 52.7188C59.9792 52.7188 56.1042 51.2083 53.25 48.1875C50.5625 45.3542 49.2188 41.5625 49.2188 36.8125ZM57.2188 27.5C56.3854 28.5625 55.75 29.8125 55.3125 31.25C54.8958 32.6875 54.6875 34.25 54.6875 35.9375C54.6875 37.6042 54.875 39.2396 55.25 40.8438C55.6458 42.4271 56.25 43.8333 57.0625 45.0625C58.8542 47.7292 61.4375 49.0625 64.8125 49.0625C67.9792 49.0625 70.4375 48.0208 72.1875 45.9375C73.9167 43.8958 74.7812 41.1354 74.7812 37.6562C74.7812 31.4896 73.0208 27.3438 69.5 25.2188C68.1875 24.4271 66.6354 24.0312 64.8438 24.0312C63.0521 24.0312 61.5417 24.3438 60.3125 24.9688C59.0833 25.5729 58.0521 26.4167 57.2188 27.5ZM111.25 44.8438L113.031 46.875C109.719 49.8542 106.51 51.7188 103.406 52.4688C102.719 52.6354 102.042 52.7188 101.375 52.7188C96.8125 52.7188 93.125 51.2708 90.3125 48.375C87.5833 45.5625 86.2188 41.8646 86.2188 37.2812C86.2188 32.6979 87.5833 28.8125 90.3125 25.625C93.3542 22.1042 97.4375 20.3438 102.562 20.3438C105.979 20.3438 109 20.9062 111.625 22.0312L110.875 28.3125H108.906C108.906 26.2083 107.646 24.875 105.125 24.3125C104.333 24.125 103.229 24.0312 101.812 24.0312C100.396 24.0312 99 24.3646 97.625 25.0312C96.2708 25.6771 95.1562 26.5417 94.2812 27.625C92.5521 29.7708 91.6875 32.3958 91.6875 35.5C91.6875 39.3125 92.625 42.3646 94.5 44.6562C96.5208 47.1146 99.1146 48.3438 102.281 48.3438C105.469 48.3438 108.458 47.1771 111.25 44.8438ZM126.406 48.6875L130.375 49.4062V52H117.25V49.4062L121.312 48.6875V5.65625L117.25 4.875V2.34375L126.406 0.03125V48.6875ZM140.625 24.3438L137.844 23.6875V21.0938H150.375V23.6875L145.5 24.4062L132.281 34.5625L145.406 47.875L147.438 48.9062L150.812 49.4062V52H142.031L126.656 35.375L140.625 24.3438ZM163.094 42.4375C163.094 46.6042 164.781 48.6875 168.156 48.6875C169.927 48.6875 171.646 47.9583 173.312 46.5L175 48.5625C173.229 50.0208 171.594 51.0833 170.094 51.75C168.594 52.3958 167.271 52.7188 166.125 52.7188C164.979 52.7188 163.865 52.4688 162.781 51.9688C161.719 51.4688 160.833 50.75 160.125 49.8125C158.729 48 158.031 45.4271 158.031 42.0938V24.75H154.062V22.0312L158.031 21.0938V16.9062L161.719 13.2188H163.094V21.0938H173.406V24.75H163.094V42.4375ZM205.844 50.375C202.802 51.9375 200.604 52.7188 199.25 52.7188C196.208 52.7188 194.688 51.4271 194.688 48.8438V47.875C194.396 48.3125 193.594 48.9479 192.281 49.7812C190.99 50.6146 189.979 51.1979 189.25 51.5312C187.521 52.3229 186.208 52.7188 185.312 52.7188C184.417 52.7188 183.677 52.6771 183.094 52.5938C182.51 52.5312 181.906 52.3958 181.281 52.1875C180.656 51.9792 180.042 51.6875 179.438 51.3125C178.833 50.9375 178.292 50.4479 177.812 49.8438C176.75 48.5104 176.219 46.7708 176.219 44.625C176.219 41.6667 177.271 39.6042 179.375 38.4375C180.708 37.6667 182.115 37.1875 183.594 37C185.094 36.8125 186.458 36.6667 187.688 36.5625C190.021 36.3542 192.354 36.2292 194.688 36.1875V29.625C194.688 27.8125 194.458 26.6042 194 26C193.229 24.9375 192.031 24.4062 190.406 24.4062C186.781 24.4062 183.219 25.5833 179.719 27.9375L177.906 25.2188C182.781 21.9688 187.146 20.3438 191 20.3438C194.354 20.3438 196.729 21.2708 198.125 23.125C199.208 24.5625 199.75 26.6042 199.75 29.25V45.6875C199.75 47.2292 200.042 48.1042 200.625 48.3125C200.833 48.375 201.104 48.4062 201.438 48.4062C202.271 48.4062 203.552 48.0833 205.281 47.4375L205.844 50.375ZM194.688 38.8125C188.771 39.0417 184.979 39.6354 183.312 40.5938C182.042 41.3229 181.406 42.5 181.406 44.125C181.406 46.4792 182.312 47.9271 184.125 48.4688C184.625 48.6146 185.229 48.6875 185.938 48.6875C186.667 48.6875 187.51 48.5417 188.469 48.25C189.427 47.9583 190.312 47.6042 191.125 47.1875C192.667 46.4375 193.854 45.7083 194.688 45V38.8125ZM216.75 48.6875L220.75 49.4062V52H207.625V49.4062L211.688 48.6875V25.9375L207.625 25.2188V22.625L216.75 20.3438V48.6875ZM211.5 10.8125C211.167 10.4375 210.896 10.0208 210.688 9.5625C210.479 9.10417 210.375 8.65625 210.375 8.21875C210.375 7.76042 210.479 7.3125 210.688 6.875C210.896 6.41667 211.167 6 211.5 5.625C212.271 4.79167 212.969 4.375 213.594 4.375C214.24 4.375 214.781 4.48958 215.219 4.71875C215.677 4.94792 216.083 5.25 216.438 5.625C217.208 6.47917 217.594 7.23958 217.594 7.90625C217.594 8.55208 217.479 9.10417 217.25 9.5625C217.042 10.0208 216.771 10.4375 216.438 10.8125C215.646 11.625 214.917 12.0312 214.25 12.0312C213.604 12.0312 213.073 11.9167 212.656 11.6875C212.24 11.4583 211.854 11.1667 211.5 10.8125ZM232.594 48.6875L236.594 49.4062V52H223.469V49.4062L227.531 48.6875V5.65625L223.469 4.875V2.34375L232.594 0.03125V48.6875Z" fill="#33689C"/>
<path d="M272.748 47.264C272.748 47.8187 272.492 48.2667 271.979 48.608C271.51 48.9493 270.934 49.1413 270.252 49.184L259.244 50.016L251.628 50.656L247.66 50.976C247.318 50.976 246.998 50.7627 246.7 50.336C246.444 49.9093 246.316 49.504 246.316 49.12C246.316 48.8213 246.401 48.608 246.572 48.48C246.785 48.3093 246.998 48.2027 247.212 48.16C247.468 48.0747 247.638 48.0107 247.724 47.968C247.766 45.664 247.788 40.288 247.788 31.84C247.788 25.6107 247.532 20.7893 247.02 17.376C246.55 13.92 246.316 12.064 246.316 11.808C246.316 11.2107 246.529 10.7413 246.956 10.4C247.425 10.0587 247.894 9.888 248.364 9.888C248.662 9.888 248.897 10.016 249.068 10.272C249.238 10.4853 249.366 10.848 249.452 11.36C249.878 12.8107 250.198 15.4773 250.412 19.36C250.668 23.2427 250.796 27.296 250.796 31.52C250.796 35.104 250.774 38.432 250.732 41.504C250.689 44.576 250.668 46.6453 250.668 47.712C251.222 47.6693 252.289 47.6053 253.868 47.52C255.446 47.392 257.068 47.264 258.732 47.136C261.206 46.8373 264.001 46.3893 267.116 45.792C269.633 45.3227 271.148 45.088 271.66 45.088C272.129 45.088 272.428 45.3013 272.556 45.728C272.684 46.1547 272.748 46.6667 272.748 47.264ZM300.472 38.752C300.472 40.416 299.853 42.336 298.616 44.512C297.379 46.688 295.629 48.5653 293.368 50.144C291.107 51.68 288.525 52.448 285.624 52.448C282.765 52.448 280.653 51.6587 279.288 50.08C277.923 48.5013 277.24 46.5387 277.24 44.192C277.24 42.144 277.603 39.6053 278.328 36.576C279.096 33.5467 280.163 30.8373 281.528 28.448C281.613 28.2773 281.955 27.6587 282.552 26.592C283.192 25.4827 283.896 24.6507 284.664 24.096C285.432 23.4987 286.243 23.2 287.096 23.2C287.48 23.2 287.821 23.3067 288.12 23.52C288.461 23.6907 288.632 23.9253 288.632 24.224C288.632 24.3093 288.504 24.5227 288.248 24.864C288.035 25.1627 287.864 25.3973 287.736 25.568C286.285 27.3173 285.112 29.0453 284.216 30.752C283.021 32.928 282.083 35.0827 281.4 37.216C280.76 39.3493 280.44 41.6747 280.44 44.192C280.44 47.5627 282.488 49.248 286.584 49.248C288.504 49.248 290.275 48.6933 291.896 47.584C293.56 46.4747 294.883 45.1307 295.864 43.552C296.845 41.9307 297.336 40.4587 297.336 39.136C297.336 37.6427 296.845 36.3413 295.864 35.232C294.883 34.1227 293.539 32.9493 291.832 31.712C290.723 30.9013 289.912 30.24 289.4 29.728C288.888 29.216 288.632 28.7893 288.632 28.448C288.632 27.936 288.995 27.5307 289.72 27.232C290.445 26.8907 291.299 26.72 292.28 26.72C292.835 26.72 293.197 26.7627 293.368 26.848C293.539 26.8907 293.624 26.9973 293.624 27.168C293.624 27.2533 293.539 27.4027 293.368 27.616C293.24 27.7867 293.176 27.936 293.176 28.064C293.176 28.192 293.603 28.6187 294.456 29.344C296.163 30.752 297.592 32.1813 298.744 33.632C299.896 35.0827 300.472 36.7893 300.472 38.752ZM327.847 38.752C327.847 40.416 327.228 42.336 325.991 44.512C324.754 46.688 323.004 48.5653 320.743 50.144C318.482 51.68 315.9 52.448 312.999 52.448C310.14 52.448 308.028 51.6587 306.663 50.08C305.298 48.5013 304.615 46.5387 304.615 44.192C304.615 42.144 304.978 39.6053 305.703 36.576C306.471 33.5467 307.538 30.8373 308.903 28.448C308.988 28.2773 309.33 27.6587 309.927 26.592C310.567 25.4827 311.271 24.6507 312.039 24.096C312.807 23.4987 313.618 23.2 314.471 23.2C314.855 23.2 315.196 23.3067 315.495 23.52C315.836 23.6907 316.007 23.9253 316.007 24.224C316.007 24.3093 315.879 24.5227 315.623 24.864C315.41 25.1627 315.239 25.3973 315.111 25.568C313.66 27.3173 312.487 29.0453 311.591 30.752C310.396 32.928 309.458 35.0827 308.775 37.216C308.135 39.3493 307.815 41.6747 307.815 44.192C307.815 47.5627 309.863 49.248 313.959 49.248C315.879 49.248 317.65 48.6933 319.271 47.584C320.935 46.4747 322.258 45.1307 323.239 43.552C324.22 41.9307 324.711 40.4587 324.711 39.136C324.711 37.6427 324.22 36.3413 323.239 35.232C322.258 34.1227 320.914 32.9493 319.207 31.712C318.098 30.9013 317.287 30.24 316.775 29.728C316.263 29.216 316.007 28.7893 316.007 28.448C316.007 27.936 316.37 27.5307 317.095 27.232C317.82 26.8907 318.674 26.72 319.655 26.72C320.21 26.72 320.572 26.7627 320.743 26.848C320.914 26.8907 320.999 26.9973 320.999 27.168C320.999 27.2533 320.914 27.4027 320.743 27.616C320.615 27.7867 320.551 27.936 320.551 28.064C320.551 28.192 320.978 28.6187 321.831 29.344C323.538 30.752 324.967 32.1813 326.119 33.632C327.271 35.0827 327.847 36.7893 327.847 38.752ZM362.134 24.416C362.134 25.0133 361.835 25.6533 361.238 26.336C360.683 26.976 360.15 27.296 359.638 27.296C359.297 27.296 358.913 27.1253 358.486 26.784C358.059 26.4 357.761 26.208 357.59 26.208C356.438 26.208 354.603 26.9973 352.086 28.576C349.569 30.1547 346.987 32.0107 344.342 34.144C341.697 36.2773 339.67 38.0907 338.262 39.584L338.326 40.736C341.569 42.2293 345.174 43.8293 349.142 45.536C353.11 47.2427 355.862 48.2453 357.398 48.544C357.995 48.6293 358.593 48.6933 359.19 48.736C359.787 48.7787 360.214 48.8 360.47 48.8C360.854 48.8 361.174 48.8213 361.43 48.864C361.686 48.9067 361.814 48.992 361.814 49.12C361.814 49.632 361.409 50.144 360.598 50.656C359.83 51.168 358.657 51.424 357.078 51.424C355.67 51.424 353.75 50.912 351.318 49.888C348.929 48.8213 346.091 47.4347 342.806 45.728L338.774 43.744C339.329 49.1627 339.606 52.1493 339.606 52.704C339.606 53.1733 339.371 53.5573 338.902 53.856C338.433 54.1547 337.921 54.304 337.366 54.304C337.025 54.304 336.747 53.792 336.534 52.768C336.321 51.744 336.065 49.7173 335.766 46.688L335.318 42.784C334.806 42.5707 334.358 42.272 333.974 41.888C333.59 41.4613 333.398 41.0773 333.398 40.736C333.398 40.224 333.825 39.6267 334.678 38.944C334.635 36.64 334.507 33.3547 334.294 29.088C334.123 24.8213 333.995 21.7067 333.91 19.744L333.59 10.848C333.59 9.65333 333.739 8.62933 334.038 7.776C334.337 6.92266 334.998 6.496 336.022 6.496C336.406 6.496 336.662 6.58133 336.79 6.752C336.918 6.88 336.982 7.15733 336.982 7.584C336.982 9.54667 337.11 14.112 337.366 21.28C337.665 28.4053 337.899 33.4827 338.07 36.512C347.585 27.4667 354.539 22.944 358.934 22.944C359.83 22.944 360.577 23.1147 361.174 23.456C361.814 23.7547 362.134 24.0747 362.134 24.416ZM391.47 27.232C391.47 30.8587 390.019 34.8267 387.118 39.136C384.217 43.4027 380.526 47.1787 376.046 50.464C374.169 51.872 372.761 52.576 371.822 52.576C371.353 52.576 370.969 52.4053 370.67 52.064C370.371 51.7227 370.222 51.3173 370.222 50.848C370.222 50.3787 370.414 49.9093 370.798 49.44C371.225 48.9707 371.843 48.5653 372.654 48.224C375.598 46.944 378.286 45.1093 380.718 42.72C383.15 40.288 385.049 37.728 386.414 35.04C387.779 32.352 388.462 29.984 388.462 27.936C388.462 27.1253 388.27 26.528 387.886 26.144C387.545 25.7173 386.969 25.504 386.158 25.504C384.366 25.504 382.531 26.2293 380.654 27.68C378.777 29.1307 377.027 31.0293 375.406 33.376C374.169 35.168 372.974 37.3227 371.822 39.84C370.67 42.3573 369.795 45.024 369.198 47.84C368.857 49.3333 368.131 50.08 367.022 50.08C366.723 50.08 366.403 49.824 366.062 49.312C365.721 48.7573 365.55 48.2667 365.55 47.84C365.55 42.8907 365.379 35.616 365.038 26.016C364.697 16.416 364.462 10.9333 364.334 9.568C364.334 9.312 364.313 9.07733 364.27 8.864C364.227 8.608 364.185 8.37333 364.142 8.16C364.099 7.904 364.057 7.648 364.014 7.392C363.971 7.09333 363.95 6.816 363.95 6.56C363.95 5.57866 364.398 5.088 365.294 5.088C366.019 5.088 366.595 5.55733 367.022 6.496C367.491 7.392 367.726 8.416 367.726 9.568V12.96C367.726 23.1147 367.875 30.9227 368.174 36.384C368.345 39.072 368.515 40.5653 368.686 40.864C369.155 39.456 369.881 37.8773 370.862 36.128C371.886 34.3787 372.953 32.7573 374.062 31.264C376.067 28.5333 378.243 26.3573 380.59 24.736C382.937 23.072 385.07 22.24 386.99 22.24C388.313 22.24 389.379 22.6667 390.19 23.52C391.043 24.3733 391.47 25.6107 391.47 27.232ZM418.722 38.752C418.722 40.416 418.103 42.336 416.866 44.512C415.629 46.688 413.879 48.5653 411.618 50.144C409.357 51.68 406.775 52.448 403.874 52.448C401.015 52.448 398.903 51.6587 397.538 50.08C396.173 48.5013 395.49 46.5387 395.49 44.192C395.49 42.144 395.853 39.6053 396.578 36.576C397.346 33.5467 398.413 30.8373 399.778 28.448C399.863 28.2773 400.205 27.6587 400.802 26.592C401.442 25.4827 402.146 24.6507 402.914 24.096C403.682 23.4987 404.493 23.2 405.346 23.2C405.73 23.2 406.071 23.3067 406.37 23.52C406.711 23.6907 406.882 23.9253 406.882 24.224C406.882 24.3093 406.754 24.5227 406.498 24.864C406.285 25.1627 406.114 25.3973 405.986 25.568C404.535 27.3173 403.362 29.0453 402.466 30.752C401.271 32.928 400.333 35.0827 399.65 37.216C399.01 39.3493 398.69 41.6747 398.69 44.192C398.69 47.5627 400.738 49.248 404.834 49.248C406.754 49.248 408.525 48.6933 410.146 47.584C411.81 46.4747 413.133 45.1307 414.114 43.552C415.095 41.9307 415.586 40.4587 415.586 39.136C415.586 37.6427 415.095 36.3413 414.114 35.232C413.133 34.1227 411.789 32.9493 410.082 31.712C408.973 30.9013 408.162 30.24 407.65 29.728C407.138 29.216 406.882 28.7893 406.882 28.448C406.882 27.936 407.245 27.5307 407.97 27.232C408.695 26.8907 409.549 26.72 410.53 26.72C411.085 26.72 411.447 26.7627 411.618 26.848C411.789 26.8907 411.874 26.9973 411.874 27.168C411.874 27.2533 411.789 27.4027 411.618 27.616C411.49 27.7867 411.426 27.936 411.426 28.064C411.426 28.192 411.853 28.6187 412.706 29.344C414.413 30.752 415.842 32.1813 416.994 33.632C418.146 35.0827 418.722 36.7893 418.722 38.752ZM446.097 38.752C446.097 40.416 445.478 42.336 444.241 44.512C443.004 46.688 441.254 48.5653 438.993 50.144C436.732 51.68 434.15 52.448 431.249 52.448C428.39 52.448 426.278 51.6587 424.913 50.08C423.548 48.5013 422.865 46.5387 422.865 44.192C422.865 42.144 423.228 39.6053 423.953 36.576C424.721 33.5467 425.788 30.8373 427.153 28.448C427.238 28.2773 427.58 27.6587 428.177 26.592C428.817 25.4827 429.521 24.6507 430.289 24.096C431.057 23.4987 431.868 23.2 432.721 23.2C433.105 23.2 433.446 23.3067 433.745 23.52C434.086 23.6907 434.257 23.9253 434.257 24.224C434.257 24.3093 434.129 24.5227 433.873 24.864C433.66 25.1627 433.489 25.3973 433.361 25.568C431.91 27.3173 430.737 29.0453 429.841 30.752C428.646 32.928 427.708 35.0827 427.025 37.216C426.385 39.3493 426.065 41.6747 426.065 44.192C426.065 47.5627 428.113 49.248 432.209 49.248C434.129 49.248 435.9 48.6933 437.521 47.584C439.185 46.4747 440.508 45.1307 441.489 43.552C442.47 41.9307 442.961 40.4587 442.961 39.136C442.961 37.6427 442.47 36.3413 441.489 35.232C440.508 34.1227 439.164 32.9493 437.457 31.712C436.348 30.9013 435.537 30.24 435.025 29.728C434.513 29.216 434.257 28.7893 434.257 28.448C434.257 27.936 434.62 27.5307 435.345 27.232C436.07 26.8907 436.924 26.72 437.905 26.72C438.46 26.72 438.822 26.7627 438.993 26.848C439.164 26.8907 439.249 26.9973 439.249 27.168C439.249 27.2533 439.164 27.4027 438.993 27.616C438.865 27.7867 438.801 27.936 438.801 28.064C438.801 28.192 439.228 28.6187 440.081 29.344C441.788 30.752 443.217 32.1813 444.369 33.632C445.521 35.0827 446.097 36.7893 446.097 38.752ZM480.384 24.416C480.384 25.0133 480.085 25.6533 479.488 26.336C478.933 26.976 478.4 27.296 477.888 27.296C477.547 27.296 477.163 27.1253 476.736 26.784C476.309 26.4 476.011 26.208 475.84 26.208C474.688 26.208 472.853 26.9973 470.336 28.576C467.819 30.1547 465.237 32.0107 462.592 34.144C459.947 36.2773 457.92 38.0907 456.512 39.584L456.576 40.736C459.819 42.2293 463.424 43.8293 467.392 45.536C471.36 47.2427 474.112 48.2453 475.648 48.544C476.245 48.6293 476.843 48.6933 477.44 48.736C478.037 48.7787 478.464 48.8 478.72 48.8C479.104 48.8 479.424 48.8213 479.68 48.864C479.936 48.9067 480.064 48.992 480.064 49.12C480.064 49.632 479.659 50.144 478.848 50.656C478.08 51.168 476.907 51.424 475.328 51.424C473.92 51.424 472 50.912 469.568 49.888C467.179 48.8213 464.341 47.4347 461.056 45.728L457.024 43.744C457.579 49.1627 457.856 52.1493 457.856 52.704C457.856 53.1733 457.621 53.5573 457.152 53.856C456.683 54.1547 456.171 54.304 455.616 54.304C455.275 54.304 454.997 53.792 454.784 52.768C454.571 51.744 454.315 49.7173 454.016 46.688L453.568 42.784C453.056 42.5707 452.608 42.272 452.224 41.888C451.84 41.4613 451.648 41.0773 451.648 40.736C451.648 40.224 452.075 39.6267 452.928 38.944C452.885 36.64 452.757 33.3547 452.544 29.088C452.373 24.8213 452.245 21.7067 452.16 19.744L451.84 10.848C451.84 9.65333 451.989 8.62933 452.288 7.776C452.587 6.92266 453.248 6.496 454.272 6.496C454.656 6.496 454.912 6.58133 455.04 6.752C455.168 6.88 455.232 7.15733 455.232 7.584C455.232 9.54667 455.36 14.112 455.616 21.28C455.915 28.4053 456.149 33.4827 456.32 36.512C465.835 27.4667 472.789 22.944 477.184 22.944C478.08 22.944 478.827 23.1147 479.424 23.456C480.064 23.7547 480.384 24.0747 480.384 24.416Z" fill="black"/>
</svg>
